<svg xmlns="http://www.w3.org/2000/svg" viewBox="0 0 180 180">
  <rect width="180" height="180" rx="36" fill="#4A90D9"/>
  <g transform="translate(90,90)">
    <path d="M-35-60h70l-10 35h-50L-35-60z" fill="#fff"/>
    <path d="M-35 60h70l10-35h-50L-35 60z" fill="#fff"/>
    <path d="M-40-60h80v12c0 3-1 5-3 7l-18 15v40l18 15c2 2 3 4 3 7v12h-5c-5 0-10-5-10-10h-10l10 10h20l-10-10h-10c0 5-5 10-10 10h-5v-12c0-3 1-5 3-7l18-15V24l-18-15c-2-2-3-4-3-7v-12h-5c-5 0-10-5-10-10h-10l10 10h20l-10-10h-10c0 5-5 10-10 10h-5v-12c0-3 1-5 3-7l18-15V-9l-18 15c-2 2-3 4-3 7v12h-5c-5 0-10-5-10-10h-10l10 10h20l-10-10h-10c0 5-5 10-10 10h-5v-12c0-3 1-5 3-7l18-15V-60h80v12c0 3-1 5-3 7l-18 15v40l18 15c2 2 3 4 3 7v12z" fill="#fff"/>
    <ellipse cx="0" cy="5" rx="15" ry="10" fill="#fff" opacity="0.4"/>
  </g>
</svg>
